<svg xmlns="http://www.w3.org/2000/svg" width="272.433" height="59.737" viewBox="0 0 272.433 59.737">
  <g id="Group_791" data-name="Group 791" transform="translate(903.692 87.221)">
    <g id="Group_788" data-name="Group 788" transform="translate(-774.488 -81.999)">
      <g id="Group_786" data-name="Group 786" transform="translate(0 31.758)">
        <path id="Path_429" data-name="Path 429" d="M-763.285-40.828c0-3.279-.022-3.9-.045-4.617-.022-.916-.334-1.272-.981-1.339-.268-.022-.581-.044-.826-.066-.335-.022-.4-.111-.4-.224,0-.178.178-.223.446-.223,1.361,0,2.476.066,3.569.066,1.473,0,2.789-.066,3.659-.066,4.708,0,5.6,2.186,5.6,3.435,0,1.807-1.25,2.967-2.721,3.726,2.342.714,4.327,2.142,4.327,4.841,0,2.476-2.319,4.93-6.76,4.93-.825,0-3.457-.134-4.126-.134-.982,0-2.03.066-3.235.066-.312,0-.469-.066-.469-.223s.111-.224.446-.224a4.072,4.072,0,0,0,.67-.089c.4-.067.646-.4.714-1.227.089-1.227.134-2.521.134-5.332Zm3.859,3.793c0,1.07-.022,2.632.046,3.77.044.714.133,1,.58,1.227a2.86,2.86,0,0,0,1.472.356c1.16,0,2.543-.8,2.543-3.034a4.567,4.567,0,0,0-1.316-3.435A3.26,3.26,0,0,0-758.176-39a9.176,9.176,0,0,0-1.116,0c-.089,0-.135.045-.135.156Zm0-3.547c0,.179.09.2.2.223a10.284,10.284,0,0,0,1.406.09,2.11,2.11,0,0,0,1.338-.357,2.726,2.726,0,0,0,.737-2.119c0-1.807-.892-3.324-2.655-3.324a2.364,2.364,0,0,0-.8.111c-.134.045-.224.089-.224.4Z" transform="translate(765.538 47.654)" fill="#fff"/>
        <path id="Path_430" data-name="Path 430" d="M-746.757-40.828c0-3.457,0-4.1-.067-4.818-.045-.625-.29-1.026-.781-1.116a3.734,3.734,0,0,0-.669-.089c-.268,0-.425-.09-.425-.246,0-.134.112-.2.491-.2.892,0,3.079.066,3.257.066.2,0,2.833-.066,3.636-.066.379,0,.491.089.491.223,0,.179-.2.224-.424.224-.224.022-.357.022-.647.066-.581.112-.8.4-.848,1.2-.066.715-.066,1.294-.066,4.752V-36.9c0,1.762.022,3.837.111,4.773.045.581.179.982.847,1.138a7.326,7.326,0,0,0,.982.111c.379,0,.468.09.468.224,0,.111-.111.223-.468.223-1.517,0-3.9-.066-4.1-.066-.111,0-2.454.066-3.212.066-.357,0-.536-.044-.536-.223,0-.156.179-.224.447-.224.223-.022.446-.044.691-.089.469-.067.625-.558.691-1.2.09-.937.135-2.544.135-4.729Z" transform="translate(764.449 47.654)" fill="#fff"/>
        <path id="Path_431" data-name="Path 431" d="M-736.507-46.584c.022-.67.112-1.071.38-1.071.179,0,.29.067.87.535.937.781,2.1,1.9,7.206,6.581,2.275,2.1,3.815,3.592,4.417,4.127l-.134-8.366c-.045-1.249-.156-1.829-1.048-1.985a7.311,7.311,0,0,0-.981-.111c-.291,0-.4-.111-.4-.224,0-.156.2-.223.446-.223.892,0,2.343.066,3.235.066.491,0,1.606-.066,2.543-.066.335,0,.491.066.491.2,0,.112-.111.246-.379.246a2.75,2.75,0,0,0-.558.066c-.736.09-.96.469-1.026,1.852-.179,4.484-.179,8.946-.268,13.43,0,1.138-.156,1.383-.446,1.383-.357,0-1.049-.535-2.5-1.807-1.517-1.338-3.48-3.1-4.819-4.327-1.249-1.138-3.48-3.235-5.108-4.819l.223,7.607c.044,1.607.133,2.209.758,2.432a5.754,5.754,0,0,0,1.183.156c.335.022.446.09.446.224,0,.179-.179.223-.536.223-.78,0-1.495-.044-2.878-.066-.513,0-2.164.066-3.034.066-.312,0-.491-.044-.491-.223,0-.134.111-.224.425-.224.2-.022.49-.022.736-.066.87-.135.981-.692,1.048-2.766C-736.6-38.33-736.641-43.707-736.507-46.584Z" transform="translate(763.813 47.677)" fill="#fff"/>
        <path id="Path_432" data-name="Path 432" d="M-700.615-32.6c0,1.317-.044,1.451-.446,1.607a17.232,17.232,0,0,1-5.465.847c-6.269,0-10.618-2.81-10.618-8.745a8.046,8.046,0,0,1,4.015-7.272,12.18,12.18,0,0,1,6.4-1.472,22.965,22.965,0,0,1,3.615.312c.758.089,1.494.245,2.141.267.2,0,.246.089.224.29a20.386,20.386,0,0,0-.245,4.1c0,.357-.09.469-.246.469s-.245-.179-.268-.357a3.417,3.417,0,0,0-.267-1.115c-.424-1.517-2.409-2.588-5.51-2.588a5,5,0,0,0-3.993,1.606,7.26,7.26,0,0,0-1.406,4.819c0,3.992,1.919,8.254,6.6,8.254a2.349,2.349,0,0,0,1.249-.268.7.7,0,0,0,.267-.6V-33.8c0-.915,0-1.784-.022-2.61,0-1.271-.29-1.74-1.048-1.852-.29-.044-.58-.066-.96-.111-.178,0-.356-.089-.356-.223s.111-.224.469-.224c1.45,0,3.168.067,3.77.067.8,0,2.253-.067,3.457-.067.335,0,.513.045.513.224,0,.156-.134.2-.357.223-.089,0-.379.045-.6.067-.536.111-.781.356-.847,1.137-.045.715-.067,1.874-.067,2.967Z" transform="translate(762.403 47.676)" fill="#fff"/>
        <path id="Path_433" data-name="Path 433" d="M-683.762-40.426c.067,0,.134-.045.134-.156v-.469c0-3.457,0-3.837-.044-4.551-.045-.647-.224-1.027-.96-1.183-.179-.022-.513-.044-.781-.066-.312,0-.424-.134-.424-.224,0-.134.111-.223.446-.223,1.294,0,3.3.066,3.525.066.2,0,2.766-.066,3.725-.066.335,0,.446.089.446.223,0,.112-.111.224-.334.224-.38.044-.513.044-.781.089-.58.09-.758.469-.826,1.182-.045.715-.045,1.294-.045,4.752V-36.9c0,2.119,0,3.77.112,4.707.066.736.245,1.115.915,1.227.312.045.758.066.981.089.268,0,.38.111.38.224,0,.156-.179.223-.446.223-1.539,0-3.792-.066-4.194-.066-.356,0-2.1.066-3.19.066-.4,0-.491-.111-.491-.245,0-.111.135-.2.425-.2a6.478,6.478,0,0,0,.691-.089c.536-.112.67-.536.736-1.249.09-.937.134-2.343.134-4.462v-1.807a.128.128,0,0,0-.134-.134h-6.96a.117.117,0,0,0-.134.134v2.32c0,2.119.023,3.034.111,3.993.067.646.268,1.071.937,1.182.469.067.691.089.937.111.245,0,.424.067.424.224,0,.111-.111.223-.446.223-1.272,0-3.9-.066-4.127-.066-.2,0-2.544.066-3.257.066-.245,0-.491-.044-.491-.2s.09-.246.38-.246c.267-.022.4-.044.692-.089.535-.067.736-.647.78-1.317.067-.937.112-2.5.112-4.617v-3.882c0-3.457-.022-3.971-.067-4.685-.045-.781-.29-1.2-1.071-1.317-.267-.044-.379-.044-.625-.066-.4-.022-.446-.134-.446-.246,0-.155.245-.2.491-.2,1.293,0,3.011.066,3.525.066.847,0,2.721-.066,3.681-.066.4,0,.469.089.469.223,0,.112-.135.224-.4.224a7.545,7.545,0,0,0-.781.089c-.6.134-.714.647-.758,1.294-.066.714-.066,1.628-.066,4.417v.469c0,.111.066.156.134.156Z" transform="translate(761.099 47.654)" fill="#fff"/>
        <path id="Path_434" data-name="Path 434" d="M-668.734-35.075c-.111,0-.156.045-.2.157l-.691,1.829a4.975,4.975,0,0,0-.357,1.427c0,.424.2.625.67.67.245.045.6.066.78.089.336,0,.4.111.4.224,0,.179-.179.223-.469.223-1,0-1.763-.066-2.945-.066-.245,0-1.718.066-2.833.066-.312,0-.446-.089-.446-.223,0-.179.156-.224.424-.224a6.19,6.19,0,0,0,.714-.089c.781-.156,1.227-.848,1.7-1.919l5.956-13.475c.424-.959.67-1.293.915-1.293.224,0,.424.312.8,1.116.58,1.249,4.328,9.794,5.845,13.184.758,1.74,1.248,2.275,2.029,2.388a4.533,4.533,0,0,0,.714.089c.29,0,.424.09.424.224,0,.156-.156.223-.58.223-2.186,0-4.729-.044-6.157-.066-.357,0-.491-.067-.491-.2s.111-.223.312-.267c.246-.045.335-.2.268-.4l-1.495-3.546a.186.186,0,0,0-.178-.135Zm4.462-1.784c.134,0,.134-.066.111-.111l-1.963-4.774c-.067-.156-.112-.111-.156,0l-1.9,4.774c-.021.066.022.111.09.111Z" transform="translate(759.661 47.679)" fill="#fff"/>
        <path id="Path_435" data-name="Path 435" d="M-647.323-36.92c0,1.74,0,3.815.111,4.752.045.58.2,1.048.87,1.16.29.045.558.067.96.111.356.022.446.09.446.246,0,.134-.111.2-.513.2-1.517,0-3.681-.066-4.037-.066-.38,0-2.544.066-3.28.066-.356,0-.513-.044-.513-.223,0-.156.179-.224.446-.224.223-.022.469-.044.714-.089.491-.09.647-.58.714-1.227.09-.937.135-2.544.135-4.707v-8.745c-.871,0-2.254-.022-3.369.045-1.249.066-1.74.356-2.03,1.137a4.475,4.475,0,0,0-.2.513c-.044.179-.111.357-.267.357-.2,0-.2-.179-.179-.447.089-.915.335-2.119.491-2.967.044-.335.111-.557.245-.557a6.555,6.555,0,0,1,.759.178,17.131,17.131,0,0,0,2.476.156h9.7a9.27,9.27,0,0,0,1.407-.089,5.594,5.594,0,0,1,.691-.134c.2,0,.224.134.224.691,0,.312-.135,2.388-.157,2.945-.021.312-.089.446-.223.446-.179,0-.223-.134-.245-.4-.022-.246-.022-.335-.045-.447-.09-.691-.424-1.226-1.74-1.316-.736-.066-1.9-.111-3.591-.111Z" transform="translate(758.528 47.673)" fill="#fff"/>
        <path id="Path_436" data-name="Path 436" d="M-629.3-36.92c0,1.74,0,3.815.111,4.752.045.58.2,1.048.87,1.16.29.045.558.067.96.111.356.022.446.09.446.246,0,.134-.111.2-.513.2-1.517,0-3.681-.066-4.037-.066-.38,0-2.544.066-3.28.066-.357,0-.513-.044-.513-.223,0-.156.178-.224.446-.224.223-.022.469-.044.714-.089.491-.09.647-.58.714-1.227.09-.937.134-2.544.134-4.707v-8.745c-.87,0-2.253-.022-3.368.045-1.249.066-1.74.356-2.03,1.137a4.435,4.435,0,0,0-.2.513c-.044.179-.111.357-.267.357-.2,0-.2-.179-.179-.447.089-.915.335-2.119.491-2.967.044-.335.111-.557.245-.557a6.52,6.52,0,0,1,.758.178,17.156,17.156,0,0,0,2.476.156h9.7a9.246,9.246,0,0,0,1.406-.089,5.633,5.633,0,0,1,.692-.134c.2,0,.223.134.223.691,0,.312-.134,2.388-.156,2.945-.022.312-.089.446-.223.446-.179,0-.224-.134-.245-.4-.023-.246-.023-.335-.046-.447-.089-.691-.424-1.226-1.739-1.316-.736-.066-1.9-.111-3.591-.111Z" transform="translate(757.36 47.673)" fill="#fff"/>
        <path id="Path_437" data-name="Path 437" d="M-619.322-40.828c0-3.457,0-4.1-.067-4.818-.044-.625-.29-1.026-.781-1.116a3.721,3.721,0,0,0-.669-.089c-.268,0-.425-.09-.425-.246,0-.134.112-.2.491-.2.893,0,3.079.066,3.257.066.2,0,2.833-.066,3.636-.066.38,0,.491.089.491.223,0,.179-.2.224-.424.224-.224.022-.357.022-.647.066-.58.112-.8.4-.847,1.2-.067.715-.067,1.294-.067,4.752V-36.9c0,1.762.022,3.837.111,4.773.045.581.179.982.848,1.138a7.3,7.3,0,0,0,.981.111c.38,0,.468.09.468.224,0,.111-.111.223-.468.223-1.517,0-3.9-.066-4.1-.066-.111,0-2.454.066-3.212.066-.357,0-.536-.044-.536-.223,0-.156.179-.224.447-.224.223-.022.446-.044.691-.089.469-.067.625-.558.691-1.2.09-.937.135-2.544.135-4.729Z" transform="translate(756.193 47.654)" fill="#fff"/>
      </g>
      <g id="Group_787" data-name="Group 787" transform="translate(0.065)">
        <path id="Path_438" data-name="Path 438" d="M-738.819-63.479h-3.765a4,4,0,0,1-2.968-1.09,4.06,4.06,0,0,1-1.09-3.006v-5.674h-2.593q-3.457,0-3.457,4.4,0,3.382,2.592,3.457h2.292v1.8a6.113,6.113,0,0,1-1.522,4.152,6.141,6.141,0,0,1-4.078,2.048h-4.283a7.391,7.391,0,0,1-5.938-2.367,9.281,9.281,0,0,1-1.841-6.163v-5h4.05V-66a8.018,8.018,0,0,0,1.4,5.035,5.681,5.681,0,0,0,1.924,1.462,3.312,3.312,0,0,0,1.474.341h0a5.445,5.445,0,0,0,2.5-.563,3.615,3.615,0,0,0,1.323-1.09,4.007,4.007,0,0,0,.861-2.331,4.728,4.728,0,0,1-3.458-1.39,5.149,5.149,0,0,1-1.428-3.871,6.763,6.763,0,0,1,1.78-4.847c1.186-1.252,3.611-1.879,5.534-1.879h6.475v6.914q0,2.254,1.992,2.255h2.217Zm-17.781,10.3a1.626,1.626,0,0,1-.469,1.164,1.577,1.577,0,0,1-1.184.488,1.671,1.671,0,0,1-1.2-.469,1.573,1.573,0,0,1-.488-1.183,1.635,1.635,0,0,1,.488-1.2,1.635,1.635,0,0,1,1.2-.488,1.593,1.593,0,0,1,1.165.488A1.635,1.635,0,0,1-756.6-53.182Zm4.434,0a1.626,1.626,0,0,1-.47,1.164,1.575,1.575,0,0,1-1.184.488,1.672,1.672,0,0,1-1.2-.469,1.574,1.574,0,0,1-.488-1.183,1.636,1.636,0,0,1,.488-1.2,1.635,1.635,0,0,1,1.2-.488,1.593,1.593,0,0,1,1.165.488A1.636,1.636,0,0,1-752.167-53.182Z" transform="translate(765.469 81.215)" fill="#fff"/>
        <path id="Path_439" data-name="Path 439" d="M-708.962-63.843h-28.011v-2.48h8.329V-77.071l-.413-3.382,4.763-.3-.3,3.645v7.966a13.725,13.725,0,0,1,3.532-4.1,8.715,8.715,0,0,1,5.486-2.331,7.881,7.881,0,0,1,4.754,1.353,4.313,4.313,0,0,1,1.86,3.682Zm-4.049-2.48v-3.758c0-2.1.006-3.088-2.719-3.156-1.586-.04-3.364.939-5.329,2.818a11.168,11.168,0,0,0-3.1,4.1Z" transform="translate(763.623 81.58)" fill="#fff"/>
        <path id="Path_440" data-name="Path 440" d="M-695.122-63.9h-3.448a4.008,4.008,0,0,1-2.969-1.09A4.06,4.06,0,0,1-702.629-68v-9.357l-.488-3.532,4.538-.751v13q0,2.254,1.992,2.255h1.466Z" transform="translate(761.43 81.637)" fill="#fff"/>
        <path id="Path_441" data-name="Path 441" d="M-674.994-63.9h-19.574v-2.48h9.578a5.49,5.49,0,0,1-1.089-3.495,5.864,5.864,0,0,1,1.54-4.19,5.071,5.071,0,0,1,3.946-1.6,8.118,8.118,0,0,1,4.847,1.955l-1.052,1.24a2.631,2.631,0,0,0-1.887-1.053q-3.344,0-3.344,3.871a3.275,3.275,0,0,0,.94,2.48,2.824,2.824,0,0,0,2.029.789h1.428l2.263-.376Zm-4.322-16.046a1.6,1.6,0,0,1-.483,1.164,1.607,1.607,0,0,1-1.189.489,1.656,1.656,0,0,1-1.171-.469,1.552,1.552,0,0,1-.5-1.184,1.612,1.612,0,0,1,.5-1.2,1.624,1.624,0,0,1,1.171-.488,1.627,1.627,0,0,1,1.17.488A1.611,1.611,0,0,1-679.316-79.946Z" transform="translate(760.876 81.637)" fill="#fff"/>
        <path id="Path_442" data-name="Path 442" d="M-624.63-63.476h-25.882a5.883,5.883,0,0,1-1.5-.188,7.2,7.2,0,0,1-2.667,4.566,8.721,8.721,0,0,1-5.524,1.672c-2.606,0-5.891-.8-7.244-2.4a9.6,9.6,0,0,1-1.841-6.239v-5h4.05v4.923c0,2.155.36,3.95,1.418,5.11a4.3,4.3,0,0,0,3.557,1.879,3.375,3.375,0,0,0,3.079-1.653,8.766,8.766,0,0,0,1.274-5.111v-4.772l-.489-3.645,4.539-.751V-68.7q0,2.743,1.992,2.743h25.243Zm-34.57-7.515a1.589,1.589,0,0,1-.488,1.164,1.632,1.632,0,0,1-1.2.489,1.624,1.624,0,0,1-1.164-.469,1.619,1.619,0,0,1-.488-1.221,1.59,1.59,0,0,1,.488-1.165,1.59,1.59,0,0,1,1.164-.488,1.635,1.635,0,0,1,1.2.488A1.635,1.635,0,0,1-659.2-70.992Z" transform="translate(759.238 81.213)" fill="#fff"/>
        <path id="Path_443" data-name="Path 443" d="M-613.269-67.479a3.9,3.9,0,0,1-1.091,2.912,4.053,4.053,0,0,1-2.968,1.071h-4.208v-2.48h2.2q2.015,0,2.015-2.18v-2.7l-.451-3.532,4.5-.715Zm-1.466,8.417a1.614,1.614,0,0,1-.488,1.147,1.605,1.605,0,0,1-1.2.507,1.624,1.624,0,0,1-1.164-.469,1.616,1.616,0,0,1-.489-1.221,1.589,1.589,0,0,1,.489-1.165,1.59,1.59,0,0,1,1.164-.488,1.635,1.635,0,0,1,1.2.488A1.635,1.635,0,0,1-614.735-59.062Z" transform="translate(756.145 81.214)" fill="#fff"/>
      </g>
    </g>
    <path id="Path_444" data-name="Path 444" d="M-815.676-54.642a27.562,27.562,0,0,0-14.271-7.186l-12.86-12.2a27.693,27.693,0,0,0-19.062-7.6h-27.219l1.127,1.46a11.106,11.106,0,0,0,8.788,4.315H-863.8a26.658,26.658,0,0,1,18.424,7.35l6.6,6.265h-35.269l2.6,3.356a6.246,6.246,0,0,0,4.936,2.42h29.841a26.53,26.53,0,0,1,4.492.381,26.857,26.857,0,0,1,11.092,4.625,26.724,26.724,0,0,1,2.84,2.344l11.595,11h-46.8A26.944,26.944,0,0,1-875.943-50.18L-893.1-75.962a12.723,12.723,0,0,0-10.593-5.675h0l8.577,13c.087.142.168.287.261.426l15.541,23.389a27.872,27.872,0,0,0,23.266,12.476h63.883Z" transform="translate(0 -0.362)" fill="#fff"/>
    <rect id="Rectangle_2548" data-name="Rectangle 2548" width="1.444" height="59.737" transform="translate(-783.605 -87.221)" fill="#fff"/>
  </g>
</svg>
