<?xml version="1.0" encoding="UTF-8"?>
<svg id="Calque_1" xmlns="http://www.w3.org/2000/svg" version="1.1" viewBox="0 0 100 25">
  <!-- Generator: Adobe Illustrator 29.8.0, SVG Export Plug-In . SVG Version: 2.1.1 Build 160)  -->
  <defs>
    <style>
      .st0 {
        fill: #fff;
      }
    </style>
  </defs>
  <g id="Page-1">
    <path id="Shape" class="st0" d="M14.5,20.4l-.3,2H0c.6-1.4.6-2.1.6-3.1V5.7c0-1,0-1.8-.6-3.1h13.9v2c-.2-.1-.4-.2-.6-.3-.5-.2-1.2-.4-1.8-.4H3.8v7.7h8.9l-.4,1.5H3.8v7.7h8c1.4,0,2.7-.7,2.7-.7v.2s0,0,0,0ZM35.9,22.4c.2-1,.2-2.3,0-3.5l-1.3-9.3-6.9,12.8h-1.3l-7-13.3-1.4,10.1c-.1,1.2-.2,2.6,0,3.3h-2.5c.5-1,.6-1.4.8-3.1l2.2-16.6h1.1l8.2,15.5,8.2-15.5h.9l2.3,16.6c.2,1.7.4,2.1.9,3.1h-4.2ZM56.6,22.4l-3.3-7.2h-6.6l-3.2,7.2h-2.6c.8-1,1.1-1.5,1.7-2.7l7.6-17h.9l7.5,16.5c.8,1.6,1.2,2.1,2.3,3.2h-4.3ZM77.3,22.4l-3.3-7.2h-6.6l-3.2,7.2h-2.6c.8-1,1.1-1.5,1.7-2.7l7.6-17h.9l7.5,16.5c.8,1.6,1.2,2.1,2.3,3.2h-4.4ZM95.9,22.4c-2-1.8-4.5-4.2-7.7-8-.9-1.1-1.6-1.2-2-1.2v6.1c0,1,0,1.8.6,3.1h-4.3c.6-1.4.6-2.1.6-3.1V5.7c0-1,0-1.8-.6-3.1h4.3c2.9,0,9.8-.3,9.8,5.4s-2.4,4.6-5.2,5h-.8c0,0,9.1,8.9,9.5,9.3h-4ZM90.8,11.9h0c1.8-.7,2.4-2.4,2.4-3.9,0-1.4-.7-4.5-6.9-4.2v8.4s3.5.2,4.5-.2c0,0,0,0,0,0ZM68,13.8h5.3l-2.7-5.9-2.6,5.9ZM47.4,13.8h5.3l-2.7-5.9-2.6,5.9Z"/>
  </g>
</svg>