<?xml version="1.0" encoding="UTF-8"?>
<svg id="Calque_2" data-name="Calque 2" xmlns="http://www.w3.org/2000/svg" viewBox="0 0 669.89 196.05">
  <defs>
    <style>
      .cls-1 {
        fill: #fff;
      }
    </style>
  </defs>
  <g id="Calque_1-2" data-name="Calque 1">
    <g>
      <g>
        <path class="cls-1" d="M31.35,62.85v28.65c0,4.05,1.35,6.45,4.05,7.35,2.1.6,5.1.75,8.7,1.05v6H0v-6c2.55-.15,5.85-.3,7.65-1.05,2.7-.9,3.9-3.3,3.9-7.35V16.35c0-4.05-1.2-6.45-3.9-7.35-1.8-.6-4.05-.6-7.65-1.05V1.95h49.8c18.15,0,33.3,9.6,33.3,28.5s-15.9,32.4-35.4,32.4h-16.35ZM31.35,9.6v45.45h10.05c13.95,0,20.25-9.45,20.25-23.1s-6.3-22.35-17.85-22.35h-12.45Z"/>
        <path class="cls-1" d="M138.3,15.45v54.6c0,18.9,7.35,29.25,25.35,29.25s25.95-12.15,25.95-29.4V20.55c-.3-5.1-2.1-8.1-4.8-9.9-2.55-1.65-5.85-2.7-9.6-3.15V1.95h38.55v5.55c-3,.45-6,1.2-8.55,2.55-3.3,1.8-5.7,5.1-5.85,10.8v48.75c0,22.8-13.95,38.4-40.35,38.4-23.1,0-40.5-11.25-40.5-36.6V16.35c0-4.05-1.2-6.45-3.9-7.35-1.95-.6-5.1-.9-7.65-1.05V1.95h43.05v6c-3.75.45-5.85.3-7.8,1.05-2.4.9-3.75,3-3.9,6.45Z"/>
        <path class="cls-1" d="M238.8,99.9c2.1-.15,6.3-.45,7.95-1.2,2.85-1.05,3.6-3.45,3.6-7.8V16.95c0-4.65-1.05-6.75-3.75-7.8-1.35-.6-4.35-.9-7.8-1.2V1.95h76.8v25.5h-5.7c-3.75-14.4-9.3-17.85-22.35-17.85h-17.4v39h13.8c4.35,0,6.75-1.2,7.8-3.9.75-1.65,1.2-5.55,1.5-9.15h6.3v33.75h-6.3c-.3-2.4-.6-7.05-1.5-8.85-1.05-3-3.45-4.2-7.8-4.2h-13.8v42h19.8c14.7,0,19.65-6.45,25.35-23.55l5.1.6-2.25,30.6h-79.35v-6Z"/>
        <path class="cls-1" d="M409.2,56.4l23.25,31.95c5.85,7.95,10.5,10.65,18,11.55l-.45,6h-28.65l-32.85-47.55h-7.65v33.15c0,4.05,1.35,6.45,4.05,7.35,2.1.6,5.1.75,8.7,1.05v6h-44.1v-6c2.55-.15,5.85-.3,7.65-1.05,2.7-.9,3.9-3.3,3.9-7.35V16.35c0-4.05-1.2-6.45-3.9-7.35-1.8-.6-4.05-.6-7.65-1.05V1.95h49.8c18.15,0,33.3,7.35,33.3,26.1,0,14.55-10.05,24.3-23.4,28.35ZM380.85,9.6v40.95h10.05c13.95,0,20.25-6.75,20.25-21.15,0-12.3-6.3-19.8-17.85-19.8h-12.45Z"/>
        <path class="cls-1" d="M520.49,9.3v82.2c0,4.05,1.2,6.45,3.9,7.35,1.95.6,4.05.6,7.8,1.05v6h-43.2v-6c2.7-.15,6-.3,7.8-1.05,2.7-.9,3.9-3.3,3.9-7.35V9.3h-6.15c-13.5,0-19.5,5.4-23.25,19.8h-5.4V1.95h89.4v27.15h-5.4c-3.75-14.4-9.6-19.8-23.1-19.8h-6.3Z"/>
        <path class="cls-1" d="M592.94,98.85c1.35.3,5.1.75,8.55,1.05v6h-34.65v-6c2.1-.15,4.95-1.05,6.6-1.65,3-1.05,4.65-3,6-6.75L615.14,0h9.6l32.85,91.5c1.35,4.05,3,5.7,6,6.75,1.65.6,4.2,1.5,6.3,1.65v6h-43.95v-6c3.15-.3,6.3-.75,7.95-1.2,2.85-.9,5.25-3.15,3.9-7.2l-7.2-21.6h-33.9l-8.1,21.6c-1.35,3.6.3,6.45,4.35,7.35ZM599.69,61.95h28.2l-13.05-39.45-15.15,39.45Z"/>
      </g>
      <g>
        <path class="cls-1" d="M186.1,195.35l.41-3.84v-36.22l-.41-3.39c5.49-.16,12.95-.29,17.49-.29,24.66,0,31.55,10.93,31.55,21.74,0,11.48-7.29,22.28-32.2,22.28-2.95,0-8.11-.1-16.84-.29ZM223.84,173.87c0-12.47-5.16-20.04-20.49-20.04-1.6,0-4.1.06-6.47.19v39.13c2.38.16,5.45.26,7.21.26,14.18,0,19.75-7.7,19.75-19.53Z"/>
        <path class="cls-1" d="M260.06,177.29v-21.99l-.41-3.39h11.18l-.41,3.39v21.61c0,11.99,3.48,17.07,13.64,17.07,12.46,0,16.67-5.59,16.67-17.61v-21.07l-.41-3.39h4.67l-.41,3.39v20.39c0,12.31-2.95,20.36-21.67,20.36-15.69,0-22.86-5.95-22.86-18.76Z"/>
        <path class="cls-1" d="M332.25,195.35l.41-3.74v-36.28l-.41-3.42c6.47-.16,12.78-.26,16.92-.26,12.58,0,21.67,1.73,21.67,10.36,0,5.56-5.29,9.05-12.54,9.91v.32c7.74.32,15.24,2.91,15.24,10.36,0,8.95-8.93,12.92-24.91,12.92-5.2,0-10.73-.06-16.39-.16ZM359.83,162.81c0-7.67-4.1-8.98-10.94-8.98-2.05,0-4.59.1-5.94.19v17.26c1.56.06,3.73.06,5.69.06,7.99,0,11.18-3.13,11.18-8.54ZM362.53,182.95c.04-5.95-3.32-9.4-14.17-9.4-1.76,0-3.97,0-5.41.03v19.6c2.09.06,4.83.1,6.72.1,6.15-.03,12.82-.74,12.86-10.33Z"/>
        <path class="cls-1" d="M392.45,195.35l2.25-3.9,19.95-39.54h7.99l18.6,39.54,2.34,3.9h-11.88l-1.23-3.9-4.14-9.08h-22.98l-4.38,9.08-1.31,3.9h-5.2ZM404.45,180.26l.86-.1h19.26l.78.1.29-.16-.7-.67-7.42-16.14-1.93-4.92h-.49l-2.21,5.05-8.07,16.02-.66.67.29.16Z"/>
        <path class="cls-1" d="M466.94,195.35l.41-4v-36.03l-.41-3.42h11.06l-.41,3.42v36.03l.41,4h-11.06Z"/>
      </g>
    </g>
  </g>
</svg>