<?xml version="1.0" encoding="UTF-8"?>
<svg id="Calque_2" data-name="Calque 2" xmlns="http://www.w3.org/2000/svg" xmlns:xlink="http://www.w3.org/1999/xlink" viewBox="0 0 301.27 418.35">
  <defs>
    <style>
      .cls-1, .cls-2, .cls-3 {
        fill: none;
      }

      .cls-4, .cls-5, .cls-6 {
        fill: #010101;
      }

      .cls-7 {
        stroke-width: 3px;
      }

      .cls-7, .cls-2 {
        stroke-miterlimit: 10;
      }

      .cls-7, .cls-3 {
        stroke: #010101;
      }

      .cls-2 {
        stroke: #1d1d1b;
        stroke-width: .5px;
      }

      .cls-5 {
        font-family: SerrifCondensed-Regular, 'Serrif Condensed';
        font-size: 75px;
      }

      .cls-6 {
        font-family: AdorHairline-Bold, 'Ador Hairline';
        font-size: 25.86px;
        font-weight: 700;
      }

      .cls-8 {
        fill: #1d1d1b;
      }

      .cls-9 {
        letter-spacing: .3em;
      }

      .cls-10 {
        letter-spacing: .3em;
      }

      .cls-11 {
        letter-spacing: .27em;
      }

      .cls-12 {
        fill: url(#Moroccan_Pattern_5_-_copie_3);
      }

      .cls-13 {
        fill: url(#Moroccan_Pattern_5_-_copie_2);
      }

      .cls-14 {
        fill: url(#Moroccan_Pattern_5_-_copie_5);
      }

      .cls-3 {
        stroke-linecap: round;
        stroke-linejoin: round;
        stroke-width: 2px;
      }

      .cls-15 {
        letter-spacing: -.03em;
      }

      .cls-16 {
        letter-spacing: .02em;
      }

      .cls-17 {
        letter-spacing: .05em;
      }

      .cls-18 {
        letter-spacing: .05em;
      }

      .cls-19 {
        letter-spacing: .04em;
      }
    </style>
    <pattern id="Moroccan_Pattern_5_-_copie_3" data-name="Moroccan Pattern 5 - copie 3" x="0" y="0" width="21.9" height="21.9" patternTransform="translate(-7830.16 -4575.68) scale(.44)" patternUnits="userSpaceOnUse" viewBox="0 0 21.9 21.9">
      <g>
        <rect class="cls-1" y="0" width="21.9" height="21.9"/>
        <line class="cls-3" x1="1" y1="1" x2="20.9" y2="20.9"/>
        <line class="cls-3" x1="20.9" y1="1" x2="1" y2="20.9"/>
      </g>
    </pattern>
    <pattern id="Moroccan_Pattern_5_-_copie_5" data-name="Moroccan Pattern 5 - copie 5" x="0" y="0" width="3.9" height="3.9" patternTransform="translate(-3465.53 -183.38)" patternUnits="userSpaceOnUse" viewBox="0 0 3.9 3.9">
      <g>
        <rect class="cls-1" width="3.9" height="3.9"/>
        <line class="cls-2" x1=".53" y1=".53" x2="3.37" y2="3.37"/>
        <line class="cls-2" x1="3.37" y1=".53" x2=".53" y2="3.37"/>
        <polygon class="cls-8" points="1.01 1.95 1.95 2.89 2.89 1.95 1.95 1.01 1.01 1.95"/>
      </g>
    </pattern>
    <pattern id="Moroccan_Pattern_5_-_copie_2" data-name="Moroccan Pattern 5 - copie 2" x="0" y="0" width="2" height="2" patternTransform="translate(-3465.53 -183.38)" patternUnits="userSpaceOnUse" viewBox="0 0 2 2">
      <g>
        <rect class="cls-1" width="2" height="2"/>
        <path class="cls-4" d="M1,.57c-.23,0-.43.19-.43.43s.19.43.43.43.43-.19.43-.43-.19-.43-.43-.43h0Z"/>
      </g>
    </pattern>
  </defs>
  <g id="Calque_1-2" data-name="Calque 1">
    <text class="cls-5" transform="translate(0 374.51)"><tspan class="cls-18" x="0" y="0">P</tspan><tspan class="cls-17" x="47.4" y="0">UE</tspan><tspan class="cls-19" x="153.75" y="0">R</tspan><tspan class="cls-15" x="205.27" y="0">T</tspan><tspan class="cls-16" x="249.15" y="0">A</tspan></text>
    <text class="cls-6" transform="translate(82.54 410.82) scale(1.28 1)"><tspan class="cls-9" x="0" y="0">DU</tspan><tspan class="cls-11" x="51.29" y="0">B</tspan><tspan class="cls-10" x="74.62" y="0">AI</tspan></text>
    <g>
      <polygon class="cls-1" points="206.05 273.33 206.42 272.97 206.05 272.97 206.05 273.33"/>
      <polygon class="cls-1" points="231.97 273.01 225.24 273.01 225.24 272.01 224.24 272.01 224.24 274.01 232.97 274.01 232.97 272.01 231.97 272.01 231.97 273.01"/>
      <polygon class="cls-1" points="75.98 273.01 69.3 273.01 69.3 272.01 68.3 272.01 68.3 274.01 76.98 274.01 76.98 272.01 75.98 272.01 75.98 273.01"/>
      <path class="cls-1" d="M160.13,6.06c-5.79-2.22-8.48-3.28-9.49-4.1-1.01.82-3.71,1.88-9.49,4.1-26.27,10.08-96.06,36.84-96.06,97.23v176.27h211.12V103.28c0-60.38-69.79-87.15-96.06-97.23ZM89.59,274.01h-8.76v-83.85h8.76v83.85ZM206.05,273.33v.68h-2.13l.04-.04-28.39.04.04-.04-80.4.04.02-86.42c.13-.5.82-2.42,4.11-6.35,2.2-2.62,4.36-4.69,4.38-4.71l3.89-3.7-3.21-4.31c-2.56-3.43-9.19-14.07-9.19-22.03,0-10.37,2.08-19.91,6.18-28.36,3.43-7.07,8.37-13.56,14.66-19.28,11.54-10.48,24.84-15.99,31.99-18.94.92-.38,1.7-.7,2.38-1l.2-.08.2.08c.69.29,1.46.62,2.34.98,7.19,2.98,20.49,8.48,32.04,18.96,6.29,5.72,11.23,12.2,14.66,19.28,4.1,8.45,6.18,17.99,6.18,28.36,0,7.96-6.63,18.59-9.19,22.02l-3.22,4.31,3.89,3.71s2.17,2.06,4.38,4.71c3.29,3.93,3.98,5.85,4.11,6.35l.02.13v85.25h.37l-.37.36ZM220.42,274.01h-8.71v-83.85h8.71v83.85ZM232.97,272.01v2h-8.73v-88.23h-12.95l-.12-.33c-1.94-5.43-9.74-12.86-9.81-12.94l-.32-.31.27-.36c.1-.14,10.3-13.87,10.3-25.35,0-48.43-42.34-65.95-56.26-71.71-2.67-1.1-4.05-1.69-4.7-2.17-.65.48-2.04,1.06-4.7,2.17-56.26,23.28-56.26,59.73-56.26,71.71s10.19,25.21,10.3,25.35l.27.36-.32.31c-.08.07-7.87,7.51-9.81,12.94l-.12.33h-13v88.23h-8.68V109.67c0-11.34,2.91-22.07,8.66-31.9,4.91-8.4,12-16.36,21.07-23.65,16.69-13.41,36.33-21.61,46.88-26.01,2.19-.91,4.07-1.7,5.52-2.36l.21-.1.21.1c1.44.66,3.23,1.41,5.5,2.35,10.57,4.41,30.21,12.61,46.9,26.02,9.07,7.29,16.16,15.24,21.07,23.65,5.75,9.83,8.66,20.57,8.66,31.9v162.33ZM250.65,103.28v170.72h-12.13V109.67c0-53.28-58.13-77.55-80.02-86.68-4.75-1.98-6.98-2.93-7.87-3.65-.89.72-3.11,1.67-7.86,3.65-21.88,9.14-80.02,33.4-80.02,86.68v164.33h-12.13V103.28c0-12.92,3.52-25.13,10.47-36.28,5.94-9.54,14.52-18.53,25.49-26.74,20.16-15.08,43.83-24.15,56.55-29.03,3.11-1.19,5.52-2.12,7.31-2.9l.2-.09.2.09c1.78.78,4.2,1.7,7.25,2.88,12.78,4.9,36.45,13.98,56.61,29.05,10.97,8.21,19.55,17.2,25.49,26.74,6.94,11.15,10.47,23.35,10.47,36.28Z"/>
      <path class="cls-1" d="M75.98,184.78h13.3c1.97-5.02,8.13-11.23,9.63-12.69-1.66-2.29-10.24-14.69-10.24-25.59,0-49.1,42.81-66.81,56.88-72.63,2.24-.93,4.36-1.81,4.62-2.16,0,.01-.03.06-.04.13h1c0-.07-.03-.12-.04-.13.26.35,2.38,1.23,4.62,2.16,14.07,5.82,56.88,23.53,56.88,72.63,0,10.91-8.58,23.3-10.24,25.59,1.49,1.46,7.66,7.67,9.63,12.69h13.25v86.23h6.73V109.67c0-11.16-2.87-21.72-8.52-31.4-4.85-8.3-11.86-16.16-20.83-23.37-16.58-13.32-36.13-21.48-46.64-25.87-2.19-.91-3.93-1.64-5.34-2.28-1.43.65-3.25,1.41-5.34,2.28-10.5,4.38-30.06,12.55-46.64,25.87-8.97,7.21-15.98,15.07-20.83,23.37-5.65,9.68-8.52,20.24-8.52,31.4v161.33h6.68v-86.23ZM76,118.83c0-62.28,74.49-82.94,74.63-86.24,0,0,0,0,0,0,.15,3.3,74.63,23.96,74.63,86.24v63.02h-5.6c-1.13-2.92-3.12-6.08-6.03-9.62-.29-.36-.59-.71-.88-1.05,3.55-6.02,8.07-15.49,8.07-24.68,0-23.38-8.64-43.09-25.69-58.57-13.45-12.22-28.87-18.6-36.28-21.66-.9-.37-1.96-.81-2.66-1.12-1.51-1.26-3.45-2.01-5.57-2.01s-4.04.74-5.57,2.01c-.7.31-1.76.75-2.66,1.12-7.41,3.07-22.83,9.44-36.27,21.66-17.04,15.48-25.69,35.19-25.69,58.57,0,9.19,4.52,18.66,8.07,24.68-.29.34-.59.69-.88,1.05-2.91,3.54-4.9,6.7-6.03,9.62h-5.6v-63.02Z"/>
      <rect class="cls-1" x="225.24" y="272.01" width="6.73" height="1"/>
      <rect class="cls-1" x="69.3" y="272.01" width="6.68" height="1"/>
      <path class="cls-1" d="M196.85,177.26l-4.54-4.32,3.75-5.02c2.5-3.35,8.99-13.73,8.99-21.42,0-10.21-2.05-19.61-6.08-27.92-3.38-6.96-8.23-13.34-14.43-18.97-11.42-10.37-24.61-15.83-31.7-18.76-.84-.35-1.56-.65-2.2-.92-.64.27-1.35.57-2.15.9-7.14,2.95-20.33,8.41-31.75,18.78-6.2,5.63-11.05,12.01-14.43,18.97-4.04,8.31-6.08,17.71-6.08,27.92,0,7.68,6.49,18.07,8.99,21.43l3.74,5.02-4.53,4.31s-2.12,2.02-4.31,4.63c-3.09,3.69-3.78,5.52-3.9,5.9v85.22l12.52-.02v-46.66l14-9.57c.69-1.15.61-7.21.84-9.2.08-.65.34-1.33.87-.64.59,10.76.95,21.54-1.76,32.06v34s2.66,0,2.66,0c.17-7.93-.52-16.08.42-23.94.25-2.11.96-6.04,1.61-7.99.71-2.12,2.19-3.89,2.53-6.2,1.33,4.55,4.46,8.57,4.97,13.37.82,7.86-.51,16.78.09,24.79h3.45v-19.39h3.06s-.19-29.29-.19-29.29l.47-.85,2.77.47v-27.71l3.06-1.11-.44-28.79,1.34-.24c-.07-3.05,0-9.17,0-9.17l-.39-2.13,1.46-1.13,1.1-18.97.43-17.25.88,1.51s-.84,11.92.45,17.36c1.14,4.81.81,12.36.81,12.36,0,0,.84.42.94,1.25.51,4-.4,9.15-.38,13.12.01,2.93.71,6.31.34,9.39h1.75s0,34.26,0,34.26l2.62,1.74-.44,25.97,2.77.07.72.59v26.84h4.36v11.07h10.91v-51.23l3.02-.03c.88-11.87.23-23.94,1.79-35.75l.86,3.71.09,11.25c2.38,2.4,7.77,8.96,7.77,12.31v59.75l14.7-.02v-85.18c-.12-.38-.8-2.21-3.9-5.9-2.18-2.6-4.29-4.61-4.31-4.63Z"/>
      <path d="M134.87,248.21c-.5-4.8-3.64-8.82-4.97-13.37-.34,2.31-1.82,4.08-2.53,6.2-.65,1.96-1.36,5.88-1.61,7.99-.94,7.85-.25,16.01-.42,23.94h.53s0,.04,0,.04h9.09c-.6-8.02.73-16.93-.09-24.8Z"/>
      <path d="M161.55,261.9v-26.84l-.72-.59-2.77-.07.44-25.97-2.62-1.74v-34.26h-1.75c.37-3.07-.33-6.46-.34-9.38-.02-3.97.89-9.12.38-13.12-.11-.83-.94-1.25-.94-1.25,0,0,.34-7.55-.81-12.36-1.29-5.44-.45-17.36-.45-17.36l-.88-1.51-.43,17.25-1.1,18.97-1.46,1.13.39,2.13s-.06,6.11,0,9.17l-1.34.24.44,28.79-3.06,1.11v27.71l-2.77-.47-.47.85.19,29.29h-3.06s0,19.39,0,19.39l27.5-.02v-11.07h-4.36Z"/>
      <path d="M182.59,200.93l-.09-11.25-.86-3.71c-1.56,11.81-.91,23.88-1.79,35.75l-3.02.03v51.22h1.21s-.04.04-.04.04l12.36-.02v-59.75c0-3.35-5.38-9.91-7.77-12.31Z"/>
      <path d="M124.45,206.91c-.53-.69-.8,0-.87.64-.23,1.99-.15,8.05-.84,9.2l-14,9.57v46.66l13.96-.02v-34c2.7-10.52,2.33-21.31,1.75-32.06Z"/>
      <path class="cls-12" d="M87.63,172.23c.29-.36.59-.71.88-1.05-3.55-6.02-8.07-15.49-8.07-24.68,0-23.38,8.64-43.09,25.69-58.57,13.45-12.22,28.87-18.6,36.27-21.66.9-.37,1.96-.81,2.66-1.12,1.53-1.27,3.48-2.01,5.57-2.01s4.06.76,5.57,2.01c.7.31,1.76.75,2.66,1.12,7.41,3.07,22.83,9.44,36.28,21.66,17.04,15.48,25.69,35.19,25.69,58.57,0,9.19-4.52,18.66-8.07,24.68.29.34.59.69.88,1.05,2.91,3.54,4.9,6.7,6.03,9.62h5.6v-63.02c0-62.28-74.49-82.94-74.63-86.24,0,0,0,0,0,0-.15,3.3-74.63,23.96-74.63,86.24v63.02h5.6c1.13-2.92,3.12-6.08,6.03-9.62Z"/>
      <path class="cls-14" d="M214.69,40.27c-20.15-15.07-43.83-24.15-56.61-29.05-3.05-1.17-5.46-2.1-7.25-2.88l-.2-.09-.2.09c-1.78.78-4.2,1.7-7.31,2.9-12.72,4.88-36.39,13.96-56.55,29.03-10.97,8.21-19.55,17.2-25.49,26.74-6.94,11.15-10.47,23.35-10.47,36.28v170.72h12.13V109.67c0-53.28,58.13-77.55,80.02-86.68,4.75-1.98,6.98-2.93,7.86-3.65.89.72,3.11,1.67,7.87,3.65,21.88,9.14,80.02,33.4,80.02,86.68v164.33h12.13V103.28c0-12.92-3.52-25.13-10.47-36.28-5.94-9.54-14.52-18.53-25.49-26.74Z"/>
      <g>
        <path d="M160.49,5.12c-4.83-1.85-9.01-3.45-9.37-4.07,0,0,.02.03.02.08l-.98-.08c-.37.62-4.54,2.22-9.37,4.07-26.45,10.14-96.71,37.09-96.71,98.16v177.27h213.12V103.28c0-61.07-70.26-88.02-96.71-98.16ZM256.19,279.55H45.08V103.28c0-60.38,69.79-87.15,96.06-97.23,5.79-2.22,8.48-3.28,9.49-4.1,1.01.82,3.71,1.88,9.49,4.1,26.27,10.08,96.06,36.84,96.06,97.23v176.27Z"/>
        <path class="cls-4" d="M151.11,1.05s0,0,0,0c0,0,0,0,0,0h0ZM150.16,1.05c-.37.62-4.54,2.22-9.37,4.07-26.45,10.14-96.71,37.09-96.71,98.16v177.27h213.12V103.28c0-61.07-70.26-88.02-96.71-98.16-4.82-1.85-8.99-3.45-9.37-4.07,0,0,.02.04.02.08l-.98-.08h0ZM45.08,279.55V103.28c0-60.38,69.79-87.15,96.06-97.23,5.79-2.22,8.48-3.28,9.49-4.1,1.01.82,3.71,1.88,9.49,4.1,26.27,10.08,96.06,36.84,96.06,97.23v176.27H45.08Z"/>
      </g>
      <rect class="cls-13" x="80.82" y="190.15" width="8.76" height="83.85"/>
      <path class="cls-7" d="M225.24,271.01v-86.23h-13.25c-1.97-5.02-8.13-11.23-9.63-12.69,1.66-2.29,10.24-14.69,10.24-25.59,0-49.1-42.81-66.81-56.88-72.63-2.24-.93-4.36-1.81-4.62-2.16,0,.01.03.06.04.13h-1c0-.07.03-.12.04-.13-.26.35-2.38,1.23-4.62,2.16-14.07,5.82-56.88,23.53-56.88,72.63,0,10.91,8.58,23.3,10.24,25.59-1.49,1.46-7.66,7.67-9.63,12.69h-13.3v87.23h1v-86.23h13l.12-.33c1.94-5.43,9.74-12.86,9.81-12.94l.32-.31-.27-.36c-.1-.14-10.3-13.87-10.3-25.35s0-48.43,56.26-71.71c2.67-1.1,4.05-1.69,4.7-2.17.65.48,2.04,1.06,4.7,2.17,13.92,5.76,56.26,23.28,56.26,71.71,0,11.48-10.19,25.21-10.3,25.35l-.27.36.32.31c.08.07,7.87,7.51,9.81,12.94l.12.33h12.95v86.23h1v-1Z"/>
      <path class="cls-7" d="M203.24,54.12c-16.69-13.41-36.33-21.61-46.9-26.02-2.27-.95-4.07-1.7-5.5-2.35l-.21-.1-.21.1c-1.45.66-3.33,1.45-5.52,2.36-10.55,4.4-30.19,12.6-46.88,26.01-9.07,7.29-16.16,15.24-21.07,23.65-5.75,9.83-8.66,20.57-8.66,31.9v162.33h1V109.67c0-11.16,2.87-21.72,8.52-31.4,4.85-8.3,11.86-16.16,20.83-23.37,16.58-13.32,36.13-21.48,46.64-25.87,2.09-.87,3.91-1.63,5.34-2.28,1.41.64,3.15,1.37,5.34,2.28,10.51,4.39,30.06,12.55,46.64,25.87,8.98,7.21,15.98,15.08,20.83,23.37,5.66,9.68,8.52,20.24,8.52,31.4v162.33h1V109.67c0-11.34-2.91-22.07-8.66-31.9-4.91-8.4-12-16.36-21.07-23.65Z"/>
      <rect class="cls-7" x="69.3" y="271.01" width="6.68" height="1"/>
      <rect class="cls-7" x="225.24" y="271.01" width="6.73" height="1"/>
      <rect class="cls-13" x="211.71" y="190.15" width="8.71" height="83.85"/>
      <g>
        <path d="M206.05,187.72l-.02-.13c-.13-.5-.82-2.42-4.11-6.35-2.22-2.65-4.37-4.7-4.38-4.71l-3.89-3.71,3.22-4.31c2.56-3.43,9.19-14.06,9.19-22.02,0-10.37-2.08-19.91-6.18-28.36-3.43-7.07-8.37-13.56-14.66-19.28-11.54-10.49-24.84-15.99-32.04-18.96-.88-.36-1.65-.68-2.34-.98l-.2-.08-.2.08c-.69.29-1.46.62-2.38,1-7.15,2.96-20.45,8.46-31.99,18.94-6.29,5.72-11.23,12.2-14.66,19.28-4.1,8.45-6.18,17.99-6.18,28.36,0,7.96,6.64,18.6,9.19,22.03l3.21,4.31-3.89,3.7s-2.19,2.09-4.38,4.71c-3.29,3.93-3.98,5.85-4.11,6.35l-.02,86.42,80.4-.04-.04.04,28.39-.04-.04.04h2.13v-86.29ZM205.05,272.97l-14.7.02v.48h-13.53v-.5h-10.91v.5h-27.5v-.47h-3.45c.01.14.01.28.02.41l.06.06h-9.71c0-.17,0-.33,0-.5h-2.64s0,.5,0,.5h-13.96v-.48l-12.52.02v-85.22c.12-.38.8-2.21,3.9-5.9,2.18-2.6,4.28-4.61,4.31-4.63l4.53-4.31-3.74-5.02c-2.5-3.36-8.99-13.75-8.99-21.43,0-10.21,2.05-19.61,6.08-27.92,3.38-6.96,8.23-13.34,14.43-18.97,11.41-10.37,24.61-15.83,31.75-18.78.8-.33,1.51-.63,2.15-.9.64.27,1.36.57,2.2.92,7.09,2.93,20.28,8.39,31.7,18.76,6.2,5.63,11.05,12.01,14.43,18.97,4.04,8.31,6.08,17.71,6.08,27.92,0,7.69-6.49,18.07-8.99,21.42l-3.75,5.02,4.54,4.32s2.12,2.03,4.31,4.63c3.09,3.69,3.78,5.52,3.9,5.9v85.18Z"/>
        <path class="cls-4" d="M150.64,78.84l-.2.08c-.69.29-1.46.62-2.38,1-7.15,2.96-20.45,8.46-31.99,18.94-6.29,5.72-11.23,12.2-14.66,19.28-4.1,8.45-6.18,17.99-6.18,28.36,0,7.96,6.64,18.6,9.19,22.03l3.21,4.31-3.89,3.7s-2.19,2.09-4.38,4.71c-3.29,3.93-3.98,5.85-4.11,6.35l-.02,86.42,80.4-.04-.04.04,28.39-.04-.04.04h2.13v-86.29l-.02-.13c-.13-.5-.82-2.42-4.11-6.35-2.22-2.65-4.37-4.7-4.38-4.71l-3.89-3.71,3.22-4.31c2.56-3.43,9.19-14.06,9.19-22.02,0-10.37-2.08-19.91-6.18-28.36-3.43-7.07-8.37-13.56-14.66-19.28-11.54-10.49-24.84-15.99-32.04-18.96-.88-.36-1.65-.68-2.34-.98l-.2-.08h0ZM96.22,273.01v-85.22c.12-.38.8-2.21,3.9-5.9,2.18-2.6,4.28-4.61,4.31-4.63l4.53-4.31-3.74-5.02c-2.5-3.36-8.99-13.75-8.99-21.43,0-10.21,2.05-19.61,6.08-27.92,3.38-6.96,8.23-13.34,14.43-18.97,11.41-10.37,24.61-15.83,31.75-18.78.8-.33,1.51-.63,2.15-.9.64.27,1.36.57,2.2.92,7.09,2.93,20.28,8.39,31.7,18.76,6.2,5.63,11.05,12.01,14.43,18.97,4.04,8.31,6.08,17.71,6.08,27.92,0,7.69-6.49,18.07-8.99,21.42l-3.75,5.02,4.54,4.32s2.12,2.03,4.31,4.63c3.09,3.69,3.78,5.52,3.9,5.9v85.18l-14.7.02v.48h-13.53v-.5h-10.91v.5h-27.5v-.47h-3.45c.01.14.01.28.02.41l.06.06h-9.71c0-.17,0-.33,0-.5h-2.64s0,.5,0,.5h-13.96v-.48l-12.52.02h0Z"/>
      </g>
      <path d="M125.88,272.97h-.53c0,.17,0,.33,0,.5h9.71l-.06-.06c-.01-.13-.01-.27-.02-.41h-9.09s0-.03,0-.03Z"/>
      <polygon points="138.42 273.47 165.91 273.47 165.91 272.98 138.42 273 138.42 273.47"/>
      <polygon points="178.03 272.97 176.82 272.97 176.82 273.47 190.35 273.47 190.35 272.99 177.99 273.01 178.03 272.97"/>
      <polygon points="108.74 273.47 122.7 273.47 122.7 272.97 108.74 272.99 108.74 273.47"/>
    </g>
  </g>
</svg>