<?xml version="1.0" encoding="UTF-8"?>
<svg id="Calque_2" data-name="Calque 2" xmlns="http://www.w3.org/2000/svg" xmlns:xlink="http://www.w3.org/1999/xlink" viewBox="0 0 161.09 223.13">
  <defs>
    <style>
      .cls-1, .cls-2, .cls-3 {
        fill: none;
      }

      .cls-4 {
        fill: #e2e2e4;
      }

      .cls-5 {
        font-family: AdorHairline-Bold, 'Ador Hairline';
        font-size: 13.83px;
        font-weight: 700;
      }

      .cls-5, .cls-6 {
        fill: #feffff;
      }

      .cls-6 {
        font-family: SerrifCondensed-Regular, 'Serrif Condensed';
        font-size: 40.1px;
      }

      .cls-7 {
        letter-spacing: .3em;
      }

      .cls-8 {
        letter-spacing: .27em;
      }

      .cls-2 {
        stroke: #fff;
        stroke-linecap: round;
        stroke-linejoin: round;
        stroke-width: 2px;
      }

      .cls-9 {
        fill: url(#Moroccan_Pattern_5_-_copie_7);
      }

      .cls-10 {
        fill: url(#Moroccan_Pattern_5_-_copie_4);
      }

      .cls-11 {
        fill: url(#Moroccan_Pattern_5_-_copie_6);
      }

      .cls-12 {
        fill: #fff;
      }

      .cls-13 {
        letter-spacing: -.03em;
      }

      .cls-3 {
        stroke: #e2e2e4;
        stroke-miterlimit: 10;
        stroke-width: .5px;
      }

      .cls-14 {
        letter-spacing: .02em;
      }

      .cls-15 {
        letter-spacing: .05em;
      }

      .cls-16 {
        letter-spacing: .05em;
      }

      .cls-17 {
        letter-spacing: .04em;
      }
    </style>
    <pattern id="Moroccan_Pattern_5_-_copie_7" data-name="Moroccan Pattern 5 - copie 7" x="0" y="0" width="21.9" height="21.9" patternTransform="translate(-6859.6 -7169.49) scale(.23)" patternUnits="userSpaceOnUse" viewBox="0 0 21.9 21.9">
      <g>
        <rect class="cls-1" width="21.9" height="21.9"/>
        <line class="cls-2" x1="1" y1="1" x2="20.9" y2="20.9"/>
        <line class="cls-2" x1="20.9" y1="1" x2="1" y2="20.9"/>
      </g>
    </pattern>
    <pattern id="Moroccan_Pattern_5_-_copie_6" data-name="Moroccan Pattern 5 - copie 6" x="0" y="0" width="3.9" height="3.9" patternTransform="translate(-5174.47 -5701.69) scale(.53)" patternUnits="userSpaceOnUse" viewBox="0 0 3.9 3.9">
      <g>
        <rect class="cls-1" width="3.9" height="3.9"/>
        <line class="cls-3" x1=".53" y1=".53" x2="3.37" y2="3.37"/>
        <line class="cls-3" x1="3.37" y1=".53" x2=".53" y2="3.37"/>
        <polygon class="cls-4" points="1.01 1.95 1.95 2.89 2.89 1.95 1.95 1.01 1.01 1.95"/>
      </g>
    </pattern>
    <pattern id="Moroccan_Pattern_5_-_copie_4" data-name="Moroccan Pattern 5 - copie 4" x="0" y="0" width="2" height="2" patternTransform="translate(-5138.29 -5704.49) scale(.53)" patternUnits="userSpaceOnUse" viewBox="0 0 2 2">
      <g>
        <rect class="cls-1" width="2" height="2"/>
        <path class="cls-12" d="M1,.57c-.23,0-.43.19-.43.43s.19.43.43.43.43-.19.43-.43-.19-.43-.43-.43h0Z"/>
      </g>
    </pattern>
  </defs>
  <g id="Design">
    <g>
      <text class="cls-6" transform="translate(0 199.69)"><tspan class="cls-16" x="0" y="0">P</tspan><tspan class="cls-15" x="25.34" y="0">UE</tspan><tspan class="cls-17" x="82.21" y="0">R</tspan><tspan class="cls-13" x="109.76" y="0">T</tspan><tspan class="cls-14" x="133.22" y="0">A</tspan></text>
      <text class="cls-5" transform="translate(44.14 219.11) scale(1.28 1)"><tspan class="cls-7" x="0" y="0">DU</tspan><tspan class="cls-8" x="27.43" y="0">B</tspan><tspan class="cls-7" x="39.9" y="0">AI</tspan></text>
      <g>
        <polygon class="cls-1" points="110.18 145.59 110.38 145.4 110.18 145.4 110.18 145.59"/>
        <polygon class="cls-1" points="124.04 145.42 120.44 145.42 120.44 144.88 119.9 144.88 119.9 145.95 124.57 145.95 124.57 144.88 124.04 144.88 124.04 145.42"/>
        <polygon class="cls-1" points="40.63 145.42 37.06 145.42 37.06 144.88 36.52 144.88 36.52 145.95 41.16 145.95 41.16 144.88 40.63 144.88 40.63 145.42"/>
        <path class="cls-1" d="M85.62,2.68c-3.09-1.19-4.54-1.75-5.08-2.19-.54.44-1.98,1-5.08,2.19-14.05,5.39-51.37,19.7-51.37,51.99v94.25h112.89V54.66c0-32.29-37.32-46.6-51.37-51.99ZM47.9,145.95h-4.68v-44.84h4.68v44.84ZM110.18,145.59v.36h-1.14l.02-.02-15.18.02.02-.02-42.99.02v-46.21c.08-.27.45-1.29,2.21-3.39,1.17-1.4,2.33-2.51,2.34-2.52l2.08-1.98-1.72-2.3c-1.37-1.83-4.92-7.52-4.92-11.78,0-5.54,1.11-10.65,3.31-15.16,1.84-3.78,4.47-7.25,7.84-10.31,6.17-5.61,13.28-8.55,17.1-10.13.49-.2.91-.38,1.28-.53l.11-.05.11.05c.37.16.78.33,1.25.52,3.85,1.59,10.96,4.53,17.13,10.14,3.37,3.06,6,6.52,7.84,10.31,2.19,4.52,3.31,9.62,3.31,15.16,0,4.26-3.55,9.94-4.91,11.77l-1.72,2.3,2.08,1.98s1.16,1.1,2.34,2.52c1.76,2.1,2.13,3.13,2.2,3.39v.07s0,45.58,0,45.58h.2l-.2.19ZM117.86,145.95h-4.66v-44.84h4.66v44.84ZM124.57,144.88v1.07h-4.67v-47.18h-6.92l-.06-.18c-1.04-2.9-5.21-6.88-5.25-6.92l-.17-.16.14-.19c.06-.07,5.51-7.42,5.51-13.55,0-25.89-22.64-35.26-30.08-38.34-1.43-.59-2.17-.9-2.51-1.16-.35.26-1.09.57-2.51,1.16-30.08,12.45-30.08,31.94-30.08,38.34s5.45,13.48,5.51,13.55l.14.19-.17.16s-4.21,4.02-5.25,6.92l-.06.18h-6.95v47.18h-4.64V58.08c0-6.06,1.56-11.8,4.63-17.06,2.63-4.49,6.42-8.75,11.27-12.64,8.93-7.17,19.43-11.55,25.07-13.91,1.17-.49,2.18-.91,2.95-1.26l.11-.05.11.05c.77.35,1.73.75,2.94,1.26,5.65,2.36,16.15,6.74,25.08,13.91,4.85,3.9,8.64,8.15,11.27,12.64,3.07,5.26,4.63,11,4.63,17.06v86.8ZM134.02,54.66v91.29h-6.49V58.08c0-28.49-31.08-41.46-42.79-46.35-2.54-1.06-3.73-1.57-4.21-1.95-.47.39-1.66.89-4.21,1.95-11.7,4.88-42.79,17.86-42.79,46.35v87.87h-6.49V54.66c0-6.91,1.88-13.44,5.6-19.4,3.18-5.1,7.76-9.91,13.63-14.3,10.78-8.06,23.44-12.92,30.24-15.52,1.66-.64,2.95-1.13,3.91-1.55l.11-.05.11.05c.95.42,2.24.91,3.88,1.54,6.83,2.62,19.49,7.48,30.27,15.54,5.87,4.39,10.45,9.2,13.63,14.3,3.71,5.96,5.6,12.49,5.6,19.4Z"/>
        <path class="cls-1" d="M40.63,98.24h7.11c1.05-2.68,4.35-6.01,5.15-6.78-.89-1.23-5.47-7.85-5.47-13.68,0-26.25,22.89-35.72,30.41-38.84,1.2-.5,2.33-.97,2.47-1.15,0,0-.02.03-.02.07h.53s-.01-.06-.02-.07c.14.19,1.27.66,2.47,1.15,7.52,3.11,30.41,12.58,30.41,38.84,0,5.83-4.59,12.46-5.47,13.68.8.78,4.09,4.1,5.15,6.78h7.08v46.11h3.6V58.08c0-5.97-1.53-11.61-4.56-16.79-2.59-4.44-6.34-8.64-11.14-12.5-8.86-7.12-19.32-11.49-24.94-13.83-1.17-.49-2.1-.88-2.86-1.22-.77.35-1.74.75-2.86,1.22-5.62,2.34-16.07,6.71-24.94,13.83-4.8,3.86-8.55,8.06-11.14,12.5-3.02,5.17-4.56,10.82-4.56,16.79v86.27h3.57v-46.11ZM40.64,62.98c0-33.3,39.83-44.35,39.91-46.11,0,0,0,0,0,0,.08,1.76,39.91,12.81,39.91,46.11v33.7h-2.99c-.61-1.56-1.67-3.25-3.22-5.15-.16-.19-.31-.38-.47-.56,1.9-3.22,4.31-8.28,4.31-13.2,0-12.5-4.62-23.04-13.73-31.32-7.19-6.53-15.43-9.94-19.4-11.58-.48-.2-1.05-.43-1.42-.6-.81-.67-1.85-1.08-2.98-1.08s-2.16.4-2.98,1.08c-.37.16-.94.4-1.42.6-3.96,1.64-12.21,5.05-19.4,11.58-9.11,8.28-13.73,18.82-13.73,31.32,0,4.92,2.41,9.98,4.31,13.2-.16.18-.31.37-.47.56-1.56,1.89-2.62,3.58-3.22,5.15h-2.99v-33.7Z"/>
        <rect class="cls-1" x="120.44" y="144.88" width="3.6" height=".53"/>
        <rect class="cls-1" x="37.06" y="144.88" width="3.57" height=".53"/>
        <path class="cls-1" d="M105.26,94.22l-2.43-2.31,2.01-2.68c1.34-1.79,4.81-7.34,4.81-11.45,0-5.46-1.09-10.49-3.25-14.93-1.81-3.72-4.4-7.13-7.72-10.14-6.1-5.54-13.16-8.46-16.95-10.03-.45-.19-.83-.35-1.18-.49-.34.15-.72.3-1.15.48-3.82,1.58-10.87,4.5-16.98,10.04-3.31,3.01-5.91,6.42-7.72,10.14-2.16,4.45-3.25,9.47-3.25,14.93,0,4.11,3.47,9.66,4.81,11.46l2,2.68-2.42,2.31s-1.14,1.08-2.3,2.47c-1.65,1.97-2.02,2.95-2.08,3.16v45.57h6.69v-24.96l7.48-5.12c.37-.62.33-3.86.45-4.92.04-.35.18-.71.47-.34.31,5.75.51,11.52-.94,17.14v18.18s1.42,0,1.42,0c.09-4.24-.28-8.6.22-12.8.14-1.13.51-3.23.86-4.27.38-1.14,1.17-2.08,1.35-3.32.71,2.43,2.39,4.58,2.66,7.15.44,4.21-.27,8.97.05,13.26h1.85v-10.37h1.63s-.1-15.66-.1-15.66l.25-.46,1.48.25v-14.82l1.64-.59-.24-15.39.72-.13c-.04-1.63,0-4.9,0-4.9l-.21-1.14.78-.6.59-10.14.23-9.23.47.81s-.45,6.37.24,9.28c.61,2.57.43,6.61.43,6.61,0,0,.45.22.5.67.27,2.14-.21,4.89-.2,7.02,0,1.56.38,3.38.18,5.02h.94s0,18.32,0,18.32l1.4.93-.24,13.89,1.48.04.39.31v14.35h2.33v5.92h5.83v-27.39l1.62-.02c.47-6.35.12-12.8.95-19.12l.46,1.98.05,6.02c1.27,1.29,4.15,4.79,4.15,6.58v31.95h7.86v-45.56c-.06-.2-.43-1.18-2.08-3.16-1.17-1.39-2.29-2.46-2.3-2.48Z"/>
        <path class="cls-12" d="M72.12,132.16c-.27-2.57-1.94-4.72-2.66-7.15-.18,1.24-.98,2.18-1.35,3.32-.35,1.05-.72,3.14-.86,4.27-.5,4.2-.13,8.56-.22,12.8h.29s0,.02,0,.02h4.86c-.32-4.29.39-9.06-.05-13.26Z"/>
        <path class="cls-12" d="M86.38,139.48v-14.35l-.39-.31-1.48-.04.24-13.89-1.4-.93v-18.32h-.94c.2-1.64-.18-3.45-.18-5.02,0-2.13.48-4.88.2-7.02-.06-.45-.5-.67-.5-.67,0,0,.18-4.04-.43-6.61-.69-2.91-.24-9.28-.24-9.28l-.47-.81-.23,9.23-.59,10.14-.78.6.21,1.14s-.03,3.27,0,4.9l-.72.13.24,15.39-1.64.59v14.82l-1.48-.25-.25.46.1,15.66h-1.63s0,10.37,0,10.37h14.7v-5.93h-2.33Z"/>
        <path class="cls-12" d="M97.63,106.88l-.05-6.02-.46-1.98c-.83,6.32-.48,12.77-.95,19.12l-1.62.02v27.39h.65s-.02.02-.02.02h6.61v-31.96c0-1.79-2.88-5.3-4.15-6.58Z"/>
        <path class="cls-12" d="M66.54,110.08c-.28-.37-.43,0-.47.34-.12,1.06-.08,4.31-.45,4.92l-7.48,5.12v24.95h7.47s0-18.19,0-18.19c1.45-5.62,1.25-11.39.94-17.14Z"/>
        <path class="cls-9" d="M46.86,91.55c.16-.19.31-.38.47-.56-1.9-3.2-4.31-8.22-4.31-13.1,0-12.41,4.62-22.86,13.73-31.08,7.19-6.48,15.43-9.87,19.4-11.49.48-.2,1.05-.43,1.42-.59.82-.67,1.86-1.07,2.98-1.07s2.17.4,2.98,1.07c.37.16.94.4,1.42.59,3.96,1.63,12.21,5.01,19.4,11.49,9.11,8.22,13.73,18.67,13.73,31.08,0,4.88-2.41,9.9-4.31,13.1.16.18.31.37.47.56,1.56,1.88,2.62,1.57,3.22,3.12h2.99v-32.45c0-33.05-39.83-43.02-39.91-44.77,0,0,0,0,0,0-.08,1.75-39.91,11.72-39.91,44.77v32.45h2.99c.61-1.55,1.67-1.24,3.22-3.12Z"/>
        <path class="cls-11" d="M114.8,20.97c-10.78-8.06-23.44-12.92-30.27-15.54-1.63-.63-2.92-1.12-3.88-1.54l-.11-.05-.11.05c-.95.42-2.24.91-3.91,1.55-6.8,2.61-19.46,7.46-30.24,15.52-5.87,4.39-10.45,9.2-13.63,14.3-3.71,5.96-5.6,12.49-5.6,19.4v91.29h6.49V58.08c0-28.49,31.08-41.46,42.79-46.35,2.54-1.06,3.73-1.57,4.21-1.95.47.39,1.66.89,4.21,1.95,11.7,4.88,42.79,17.86,42.79,46.35v87.87h6.49V54.66c0-6.91-1.88-13.44-5.6-19.4-3.18-5.1-7.76-9.91-13.63-14.3Z"/>
        <g>
          <path class="cls-12" d="M85.81,2.18c-2.58-.99-4.82-1.85-5.01-2.18,0,0,0,.02.01.05l-.52-.05c-.2.33-2.43,1.19-5.01,2.18-14.14,5.42-51.71,19.83-51.71,52.49v94.79h113.95V54.66c0-32.66-37.57-47.06-51.71-52.49ZM136.99,148.92H24.1V54.66C24.1,22.38,61.42,8.06,75.47,2.68c3.09-1.19,4.54-1.75,5.08-2.19.54.44,1.98,1,5.08,2.19,14.05,5.39,51.37,19.7,51.37,51.99v94.25Z"/>
          <path class="cls-12" d="M80.8,0s0,0,0,0c0,0,0,0,0,0h0ZM80.29,0c-.2.33-2.43,1.19-5.01,2.18-14.14,5.42-51.71,19.83-51.71,52.49v94.79h113.95V54.66c0-32.66-37.57-47.06-51.71-52.49-2.58-.99-4.81-1.84-5.01-2.17,0,0,0,.02,0,.04L80.29,0h0ZM24.1,148.92V54.66C24.1,22.38,61.42,8.06,75.47,2.68c3.09-1.19,4.54-1.75,5.08-2.19.54.44,1.98,1,5.08,2.19,14.05,5.39,51.37,19.7,51.37,51.99v94.25H24.1Z"/>
        </g>
        <rect class="cls-10" x="43.22" y="101.11" width="4.68" height="44.84"/>
        <g>
          <path class="cls-12" d="M120.44,144.35v-46.11h-7.08c-1.05-2.68-4.35-6.01-5.15-6.78.89-1.23,5.47-7.85,5.47-13.68,0-26.25-22.89-35.72-30.41-38.84-1.2-.5-2.33-.97-2.47-1.15,0,0,.02.03.02.07h-.53s.01-.06.02-.07c-.14.19-1.27.66-2.47,1.15-7.52,3.11-30.41,12.58-30.41,38.84,0,5.83,4.59,12.46,5.47,13.68-.8.78-4.09,4.1-5.15,6.78h-7.11v46.64h.53v-46.11h6.95l.06-.18c1.04-2.9,5.21-6.88,5.25-6.92l.17-.16-.14-.19c-.06-.07-5.51-7.42-5.51-13.55s0-25.89,30.08-38.34c1.43-.59,2.17-.9,2.51-1.16.35.26,1.09.57,2.51,1.16,7.44,3.08,30.08,12.45,30.08,38.34,0,6.14-5.45,13.48-5.51,13.55l-.14.19.17.16s4.21,4.02,5.25,6.92l.06.18h6.92v46.11h.53v-.53Z"/>
          <path class="cls-12" d="M121.24,145.68h-2.14v-46.11h-6.69l-.25-.71c-.97-2.71-5-6.57-5.04-6.61l-.69-.65.57-.76c.05-.07,5.35-7.22,5.35-13.07,0-25.36-22.27-34.57-29.59-37.6-1.06-.44-1.75-.73-2.21-.97-.46.24-1.14.53-2.21.97-29.59,12.24-29.59,31.33-29.59,37.6,0,5.85,5.29,13,5.35,13.07l.57.76-.69.66s-4.07,3.9-5.04,6.61l-.25.71h-6.71v46.11h-2.14v-48.25h7.39c1.09-2.31,3.42-4.85,4.63-6.07-1.45-2.11-5.23-8.14-5.23-13.59,0-26.79,23.26-36.41,30.91-39.58.85-.35,2.01-.83,2.23-.99,0,0-.05.04-.1.11l.43.31.2-.14v-.42h.53v.42l.2.14.43-.31c-.05-.07-.1-.11-.1-.11.22.16,1.38.64,2.23.99,7.65,3.17,30.91,12.79,30.91,39.58,0,5.45-3.78,11.48-5.23,13.59,1.21,1.23,3.54,3.77,4.63,6.07h7.36v48.25ZM80.44,37.87l.11.08.11-.08h-.11s-.11,0-.11,0Z"/>
        </g>
        <g>
          <path class="cls-12" d="M108.68,28.38c-8.92-7.17-19.42-11.55-25.08-13.91-1.22-.51-2.17-.91-2.94-1.26l-.11-.05-.11.05c-.77.35-1.78.77-2.95,1.26-5.64,2.35-16.14,6.74-25.07,13.91-4.85,3.9-8.64,8.15-11.27,12.64-3.07,5.26-4.63,11-4.63,17.06v86.8h.53V58.08c0-5.97,1.53-11.62,4.56-16.79,2.59-4.44,6.34-8.64,11.14-12.5,8.87-7.12,19.32-11.49,24.94-13.83,1.12-.47,2.09-.87,2.86-1.22.76.34,1.69.73,2.86,1.22,5.62,2.35,16.07,6.71,24.94,13.83,4.8,3.86,8.55,8.06,11.14,12.5,3.02,5.17,4.56,10.82,4.56,16.79v86.8h.53V58.08c0-6.06-1.56-11.8-4.63-17.06-2.62-4.49-6.42-8.75-11.27-12.64Z"/>
          <path class="cls-12" d="M125.37,145.68h-2.14V58.08c0-5.82-1.5-11.33-4.45-16.38-2.54-4.35-6.23-8.48-10.95-12.28-8.77-7.05-19.16-11.39-24.74-13.72-1.02-.43-1.85-.77-2.55-1.08-.71.31-1.56.67-2.52,1.07-5.61,2.34-15.99,6.68-24.77,13.73-4.72,3.79-8.41,7.92-10.95,12.28-2.95,5.05-4.45,10.56-4.45,16.38v87.6h-2.14V58.08c0-6.21,1.59-12.08,4.74-17.46,2.68-4.58,6.53-8.91,11.46-12.86,9.01-7.24,19.58-11.65,25.26-14.02,1.17-.49,2.17-.91,2.93-1.25l.44-.2.44.2c.76.35,1.71.75,2.92,1.25,5.68,2.37,16.26,6.79,25.27,14.03h0c4.93,3.96,8.78,8.29,11.46,12.86,3.15,5.38,4.74,11.26,4.74,17.46v87.6Z"/>
        </g>
        <g>
          <rect class="cls-12" x="37.06" y="144.35" width="3.57" height=".53"/>
          <rect class="cls-12" x="36.25" y="143.55" width="5.18" height="2.14"/>
        </g>
        <g>
          <rect class="cls-12" x="120.44" y="144.35" width="3.6" height=".53"/>
          <rect class="cls-12" x="119.63" y="143.55" width="5.2" height="2.14"/>
        </g>
        <rect class="cls-10" x="113.2" y="101.11" width="4.66" height="44.84"/>
        <g>
          <path class="cls-12" d="M110.18,99.81v-.07c-.08-.27-.45-1.29-2.21-3.39-1.19-1.42-2.34-2.51-2.34-2.52l-2.08-1.98,1.72-2.3c1.37-1.83,4.91-7.52,4.91-11.77,0-5.54-1.11-10.65-3.31-15.16-1.84-3.78-4.47-7.25-7.84-10.31-6.17-5.61-13.28-8.55-17.13-10.14-.47-.19-.88-.37-1.25-.52l-.11-.05-.11.05c-.37.16-.78.33-1.28.53-3.82,1.58-10.93,4.52-17.1,10.13-3.37,3.06-6,6.52-7.84,10.31-2.19,4.52-3.31,9.62-3.31,15.16,0,4.25,3.55,9.94,4.92,11.78l1.72,2.3-2.08,1.98s-1.17,1.12-2.34,2.52c-1.76,2.1-2.13,3.13-2.2,3.39v46.21s42.98-.02,42.98-.02l-.02.02,15.18-.02-.02.02h1.14v-46.14ZM109.64,145.4h-7.86v.27h-7.23v-.27h-5.83v.27h-14.7v-.25h-1.85c0,.07,0,.15.01.22l.03.03h-5.19c0-.09,0-.18,0-.27h-1.41s0,.27,0,.27h-7.47v-.26h-6.69s0-45.56,0-45.56c.06-.2.43-1.18,2.08-3.16,1.17-1.39,2.29-2.46,2.3-2.47l2.42-2.31-2-2.68c-1.34-1.79-4.81-7.35-4.81-11.46,0-5.46,1.09-10.49,3.25-14.93,1.81-3.72,4.4-7.13,7.72-10.14,6.1-5.54,13.16-8.46,16.98-10.04.43-.18.81-.33,1.15-.48.34.15.73.3,1.18.49,3.79,1.57,10.85,4.49,16.95,10.03,3.31,3.01,5.91,6.42,7.72,10.14,2.16,4.45,3.25,9.47,3.25,14.93,0,4.11-3.47,9.66-4.81,11.45l-2.01,2.68,2.43,2.31s1.14,1.08,2.3,2.48c1.65,1.97,2.02,2.95,2.08,3.16v45.55Z"/>
          <path class="cls-12" d="M80.55,41.59l-.11.05c-.37.16-.78.33-1.28.53-3.82,1.58-10.93,4.52-17.1,10.13-3.37,3.06-6,6.52-7.84,10.31-2.19,4.52-3.31,9.62-3.31,15.16,0,4.25,3.55,9.94,4.92,11.78l1.72,2.3-2.08,1.98s-1.17,1.12-2.34,2.52c-1.76,2.1-2.13,3.13-2.2,3.39v46.21s42.98-.02,42.98-.02l-.02.02,15.18-.02-.02.02h1.14v-46.21c-.08-.27-.45-1.29-2.21-3.39-1.19-1.42-2.34-2.51-2.34-2.52l-2.08-1.98,1.72-2.3c1.37-1.83,4.91-7.52,4.91-11.77,0-5.54-1.11-10.65-3.31-15.16-1.84-3.78-4.47-7.25-7.84-10.31-6.17-5.61-13.28-8.55-17.13-10.14-.47-.19-.88-.37-1.25-.52l-.11-.05h0ZM51.45,145.42v-45.57c.06-.2.43-1.18,2.08-3.16,1.17-1.39,2.29-2.46,2.3-2.47l2.42-2.31-2-2.68c-1.34-1.79-4.81-7.35-4.81-11.46,0-5.46,1.09-10.49,3.25-14.93,1.81-3.72,4.4-7.13,7.72-10.14,6.1-5.54,13.16-8.46,16.98-10.04.43-.18.81-.33,1.15-.48.34.15.73.3,1.18.49,3.79,1.57,10.85,4.49,16.95,10.03,3.31,3.01,5.91,6.42,7.72,10.14,2.16,4.45,3.25,9.47,3.25,14.93,0,4.11-3.47,9.66-4.81,11.45l-2.01,2.68,2.43,2.31s1.14,1.08,2.3,2.48c1.65,1.97,2.02,2.95,2.08,3.16v45.55h-7.86v.27h-7.23v-.27h-5.83v.27h-14.7v-.25h-1.85c0,.07,0,.15.01.22l.03.03h-5.19c0-.09,0-.18,0-.27h-1.41s0,.27,0,.27h-7.47v-.26h-6.69Z"/>
        </g>
        <path class="cls-12" d="M67.31,145.4h-.29c0,.09,0,.18,0,.27h5.19l-.03-.03c0-.07,0-.15-.01-.22h-4.86s0-.02,0-.02Z"/>
        <polygon class="cls-12" points="74.01 145.66 88.71 145.66 88.71 145.4 74.01 145.41 74.01 145.66"/>
        <polygon class="cls-12" points="95.19 145.4 94.55 145.4 94.55 145.66 101.78 145.66 101.78 145.41 95.17 145.42 95.19 145.4"/>
        <polygon class="cls-12" points="58.14 145.66 65.61 145.66 65.61 145.4 58.14 145.41 58.14 145.66"/>
      </g>
    </g>
  </g>
</svg>