<svg xmlns="http://www.w3.org/2000/svg" width="35" height="36" fill="none"><g clip-path="url(#clip0)" fill="#222"><path d="M386.167-966.666l1.729 1.006-754.53 1296.412-1.729-1.006z"/><path d="M389.646-960.591l1.729 1.006-754.53 1296.412-1.729-1.006z"/><path d="M393.125-954.517l1.729 1.006-754.53 1296.412-1.729-1.006z"/><path d="M396.604-948.442l1.729 1.006-754.53 1296.412-1.729-1.006z"/><path d="M400.083-942.368l1.729 1.006-754.53 1296.412-1.729-1.006z"/><path d="M403.561-936.294l1.729 1.006-754.53 1296.412-1.729-1.006z"/><path d="M407.04-930.219l1.729 1.006-754.53 1296.412-1.729-1.006z"/><path d="M410.519-924.145l1.729 1.006-754.53 1296.412-1.729-1.006z"/><path d="M413.998-918.071l1.729 1.006-754.53 1296.412-1.729-1.006z"/><path d="M417.477-911.996l1.729 1.006-754.53 1296.412-1.729-1.006z"/><path d="M420.955-905.922l1.729 1.006-754.53 1296.412-1.729-1.006z"/><path d="M424.434-899.848l1.729 1.006-754.53 1296.412-1.729-1.006z"/><path d="M427.913-893.773l1.729 1.006-754.53 1296.412-1.729-1.006z"/><path d="M431.392-887.699l1.729 1.006-754.53 1296.412-1.729-1.006z"/><path d="M434.871-881.624l1.729 1.006-754.53 1296.412-1.729-1.006z"/><path d="M438.35-875.55l1.729 1.006-754.53 1296.412-1.729-1.006z"/><path d="M441.828-869.475l1.729 1.006-754.53 1296.412-1.729-1.006z"/><path d="M445.307-863.401l1.729 1.006-754.53 1296.412-1.729-1.006z"/><path d="M448.786-857.327l1.729 1.006-754.53 1296.412-1.729-1.006z"/><path d="M452.265-851.252l1.729 1.006-754.53 1296.412-1.729-1.006z"/><path d="M455.744-845.178l1.729 1.006-754.53 1296.412-1.729-1.006z"/><path d="M459.222-839.104l1.729 1.006-754.53 1296.412-1.729-1.006z"/><path d="M462.701-833.029l1.729 1.006L-290.1 464.389l-1.729-1.006z"/><path d="M466.18-826.955l1.729 1.006-754.53 1296.412-1.729-1.006z"/><path d="M469.659-820.881l1.729 1.006-754.53 1296.412-1.729-1.006z"/><path d="M473.138-814.806l1.729 1.006-754.53 1296.412-1.729-1.006z"/><path d="M476.616-808.732l1.729 1.006-754.53 1296.412-1.729-1.006z"/><path d="M480.095-802.658l1.729 1.006-754.53 1296.412-1.729-1.006z"/><path d="M483.574-796.583l1.729 1.006-754.53 1296.412-1.729-1.006z"/><path d="M487.053-790.509l1.729 1.006-754.53 1296.412-1.729-1.006z"/><path d="M490.532-784.435l1.729 1.006-754.53 1296.412-1.729-1.006z"/><path d="M494.011-778.36l1.729 1.006-754.53 1296.412-1.729-1.006z"/><path d="M497.489-772.286l1.729 1.006-754.53 1296.412-1.729-1.006z"/><path d="M500.968-766.212l1.729 1.006-754.53 1296.412-1.729-1.006z"/><path d="M504.447-760.137l1.729 1.006-754.53 1296.412-1.729-1.006z"/><path d="M507.926-754.063l1.729 1.006-754.53 1296.412-1.729-1.006z"/><path d="M511.405-747.988l1.729 1.006-754.53 1296.412-1.729-1.006z"/><path d="M514.884-741.914l1.729 1.006-754.53 1296.412-1.729-1.006z"/><path d="M518.362-735.84l1.729 1.006-754.53 1296.412-1.729-1.006z"/><path d="M521.841-729.765l1.729 1.006-754.53 1296.412-1.729-1.006z"/><path d="M525.32-723.691l1.729 1.006-754.53 1296.412-1.729-1.006z"/><path d="M528.799-717.617l1.729 1.006-754.53 1296.412-1.729-1.006z"/><path d="M532.278-711.542l1.729 1.006-754.53 1296.412-1.729-1.006z"/><path d="M535.756-705.468l1.729 1.006-754.53 1296.412-1.729-1.006z"/><path d="M539.235-699.394l1.729 1.006-754.53 1296.412-1.729-1.006z"/><path d="M542.714-693.319l1.729 1.006-754.53 1296.412-1.729-1.006z"/><path d="M546.193-687.245l1.729 1.006-754.53 1296.412-1.729-1.006z"/><path d="M549.672-681.17l1.729 1.006-754.53 1296.412-1.729-1.006z"/><path d="M553.151-675.096l1.729 1.006-754.53 1296.412-1.729-1.006z"/><path d="M556.629-669.022l1.729 1.006-754.53 1296.412-1.729-1.006z"/><path d="M709.697-401.75l1.729 1.006-754.53 1296.412-1.729-1.006z"/><path d="M560.108-662.947l1.729 1.006-754.53 1296.412-1.729-1.006z"/><path d="M713.176-395.676l1.729 1.006-754.53 1296.412-1.729-1.006z"/><path d="M563.587-656.873l1.729 1.006-754.53 1296.412-1.729-1.006z"/><path d="M716.655-389.601l1.729 1.006-754.53 1296.412-1.729-1.006z"/><path d="M567.066-650.799l1.729 1.006-754.53 1296.412-1.729-1.006z"/><path d="M720.134-383.527l1.729 1.006-754.53 1296.412-1.729-1.006z"/><path d="M570.545-644.724l1.729 1.006-754.53 1296.412-1.729-1.006z"/><path d="M723.613-377.452l1.729 1.006-754.53 1296.412-1.729-1.006z"/><path d="M574.024-638.65l1.729 1.006-754.53 1296.412-1.729-1.006z"/><path d="M727.092-371.378l1.729 1.006L-25.71 926.04l-1.729-1.006z"/><path d="M577.502-632.576l1.729 1.006L-175.3 664.842l-1.729-1.006z"/><path d="M730.57-365.304l1.729 1.006-754.53 1296.412-1.729-1.006z"/><path d="M580.981-626.501l1.729 1.006-754.53 1296.412-1.729-1.006z"/><path d="M734.049-359.229l1.729 1.006-754.53 1296.412-1.729-1.006z"/><path d="M584.46-620.427l1.729 1.006-754.53 1296.412-1.729-1.006z"/><path d="M737.528-353.155l1.729 1.006-754.53 1296.412-1.729-1.006z"/><path d="M587.939-614.353l1.729 1.006-754.53 1296.412-1.729-1.006z"/><path d="M741.007-347.081l1.729 1.006-754.53 1296.412-1.729-1.006z"/><path d="M591.418-608.278l1.729 1.006-754.53 1296.412-1.729-1.006z"/><path d="M744.486-341.006l1.729 1.006L-8.315 956.412l-1.729-1.006z"/><path d="M594.897-602.204l1.729 1.006-754.53 1296.412-1.729-1.006z"/><path d="M747.965-334.932l1.729 1.006L-4.836 962.486l-1.729-1.006z"/><path d="M598.375-596.13l1.729 1.006-754.53 1296.412-1.729-1.006z"/><path d="M751.443-328.858l1.729 1.006L-1.358 968.56l-1.729-1.006z"/><path d="M601.854-590.055l1.729 1.006-754.53 1296.412-1.729-1.006z"/><path d="M754.922-322.783l1.729 1.006L2.12 974.635.392 973.63z"/><path d="M605.333-583.981l1.729 1.006-754.53 1296.412-1.729-1.006z"/><path d="M758.401-316.709l1.729 1.006L5.6 980.709l-1.729-1.006z"/><path d="M608.812-577.906l1.729 1.006-754.53 1296.412-1.729-1.006z"/><path d="M761.88-310.635l1.729 1.006L9.079 986.783l-1.729-1.006z"/><path d="M612.291-571.832l1.729 1.006-754.53 1296.412-1.729-1.006z"/><path d="M765.359-304.56l1.729 1.006L12.558 992.858l-1.729-1.006z"/><path d="M615.77-565.758l1.729 1.006-754.53 1296.412-1.729-1.006z"/><path d="M768.837-298.486l1.729 1.006L16.036 998.932l-1.729-1.006z"/><path d="M619.249-559.683l1.729 1.006-754.53 1296.412-1.729-1.006z"/><path d="M772.316-292.411l1.729 1.006-754.53 1296.412-1.729-1.006z"/><path d="M622.727-553.609l1.729 1.006-754.53 1296.412-1.729-1.006z"/><path d="M775.795-286.337l1.729 1.006-754.53 1296.412-1.729-1.006z"/><path d="M626.206-547.535l1.729 1.006-754.53 1296.412-1.729-1.006z"/><path d="M779.274-280.263l1.729 1.006-754.53 1296.412-1.729-1.006z"/><path d="M629.685-541.46l1.729 1.006-754.53 1296.412-1.729-1.006z"/><path d="M782.753-274.188l1.729 1.006L29.952 1023.23l-1.729-1.006z"/><path d="M633.163-535.386l1.729 1.006-754.53 1296.412-1.729-1.006z"/><path d="M786.231-268.114l1.729 1.006L33.43 1029.304l-1.729-1.006z"/><path d="M636.642-529.312l1.729 1.006-754.53 1296.412-1.729-1.006z"/><path d="M640.121-523.237l1.729 1.006-754.53 1296.412-1.729-1.006z"/><path d="M643.6-517.163l1.729 1.006-754.53 1296.412-1.729-1.006z"/><path d="M647.079-511.089l1.729 1.006-754.53 1296.412-1.729-1.006z"/><path d="M650.558-505.014l1.729 1.006-754.53 1296.412-1.729-1.006z"/><path d="M654.036-498.94l1.729 1.006-754.53 1296.412-1.729-1.006z"/><path d="M657.515-492.866l1.729 1.006-754.53 1296.412-1.729-1.006z"/><path d="M660.994-486.791l1.729 1.006-754.53 1296.412-1.729-1.006z"/><path d="M664.473-480.717l1.729 1.006-754.53 1296.412-1.729-1.006z"/><path d="M667.952-474.642l1.729 1.006L-84.85 822.776l-1.729-1.006z"/><path d="M671.431-468.568l1.729 1.006L-81.37 828.85l-1.729-1.006z"/><path d="M674.909-462.494l1.729 1.006-754.53 1296.412-1.729-1.006z"/><path d="M678.388-456.419l1.729 1.006-754.53 1296.412-1.729-1.006z"/><path d="M681.867-450.345l1.729 1.006-754.53 1296.412-1.729-1.006z"/><path d="M685.346-444.271l1.729 1.006-754.53 1296.412-1.729-1.006z"/><path d="M688.825-438.196l1.729 1.006-754.53 1296.412-1.729-1.006z"/><path d="M692.303-432.122l1.729 1.006-754.53 1296.412-1.729-1.006z"/><path d="M695.782-426.047l1.729 1.006L-57.02 871.371l-1.729-1.006z"/><path d="M699.261-419.973l1.729 1.006L-53.54 877.445l-1.729-1.006z"/><path d="M702.74-413.899l1.729 1.006-754.53 1296.412-1.729-1.006z"/><path d="M706.219-407.824l1.729 1.006-754.53 1296.412-1.729-1.006z"/></g></svg>