<?xml version="1.0" encoding="UTF-8"?>
<svg id="Calque_2" data-name="Calque 2" xmlns="http://www.w3.org/2000/svg" viewBox="0 0 147.8 148.5">
  <defs>
    <style>
      .cls-1 {
        fill-rule: evenodd;
      }

      .cls-1, .cls-2 {
        fill: #fff;
      }
    </style>
  </defs>
  <g id="Calque_1-2" data-name="Calque 1">
    <g>
      <g>
        <polygon class="cls-2" points=".1 148.5 .14 148.36 0 148.4 .1 148.5"/>
        <path class="cls-2" d="M126.3,21.6C112.5,7.7,94,0,74.3,0,33.7,0,.7,33,.7,73.6c0,12.9,3.4,25.6,9.8,36.8L.14,148.36l38.86-10.16c10.8,5.9,22.9,9,35.2,9,40.6,0,73.6-33,73.6-73.6,0-19.6-7.6-38.1-21.5-52ZM74.1,134.7c-11,0-21.7-2.9-31.1-8.5l-2.2-1.3-23.1,6.1,6.2-22.6-1.5-2.3c-6.1-9.7-9.3-21-9.3-32.5,0-33.7,27.5-61.1,61.2-61.1l-.1-.1c16.2-.1,31.8,6.4,43.2,17.9,11.5,11.5,17.9,27.1,17.9,43.3-.1,33.7-27.5,61.1-61.2,61.1Z"/>
      </g>
      <path class="cls-1" d="M55.9,42.9c-1.4-3.1-2.8-3.1-4.1-3.2h-3.5c-1.2,0-3.2.4-4.9,2.3s-6.4,6.3-6.4,15.3,6.6,17.8,7.5,19,12.7,20.4,31.4,27.8c15.5,6.1,18.7,4.9,22.1,4.6s10.9-4.4,12.4-8.7,1.5-8,1.1-8.7-1.7-1.2-3.5-2.1-10.9-5.4-12.6-6-2.9-.9-4.1.9-4.7,6-5.8,7.2-2.1,1.4-4,.5-7.8-2.9-14.8-9.1c-5.5-4.9-9.2-10.9-10.2-12.7s-.1-2.8.8-3.8c.8-.8,1.8-2.1,2.8-3.2s1.2-1.8,1.8-3.1.3-2.3-.2-3.2-4-10-5.7-13.6"/>
    </g>
  </g>
</svg>